<?xml version="1.0" encoding="UTF-8" ?>
<svg version="1.1" width="16" height="16" xmlns="http://www.w3.org/2000/svg" shape-rendering="crispEdges">
<rect x="2" y="0" width="1" height="1" fill="#DEDEDE" />
<rect x="3" y="0" width="1" height="1" fill="#DEDEDE" />
<rect x="4" y="0" width="1" height="1" fill="#DEDEDE" />
<rect x="5" y="0" width="1" height="1" fill="#DEDEDE" />
<rect x="6" y="0" width="1" height="1" fill="#DEDEDE" />
<rect x="7" y="0" width="1" height="1" fill="#DEDEDE" />
<rect x="8" y="0" width="1" height="1" fill="#DEDEDE" />
<rect x="9" y="0" width="1" height="1" fill="#DEDEDE" />
<rect x="10" y="0" width="1" height="1" fill="#DEDEDE" />
<rect x="11" y="0" width="1" height="1" fill="#DEDEDE" />
<rect x="12" y="0" width="1" height="1" fill="#DEDEDE" />
<rect x="13" y="0" width="1" height="1" fill="#DEDEDE" />
<rect x="1" y="1" width="1" height="1" fill="#DEDEDE" />
<rect x="14" y="1" width="1" height="1" fill="#DEDEDE" />
<rect x="0" y="2" width="1" height="1" fill="#DEDEDE" />
<rect x="5" y="2" width="1" height="1" fill="#F5F5F5" opacity="0.294118" />
<rect x="6" y="2" width="1" height="1" fill="#F3F3F3" opacity="0.972549" />
<rect x="7" y="2" width="1" height="1" fill="#F3F3F3" />
<rect x="8" y="2" width="1" height="1" fill="#F3F3F3" />
<rect x="9" y="2" width="1" height="1" fill="#F3F3F3" />
<rect x="10" y="2" width="1" height="1" fill="#F3F3F3" opacity="0.964706" />
<rect x="11" y="2" width="1" height="1" fill="#F4F4F4" opacity="0.270588" />
<rect x="15" y="2" width="1" height="1" fill="#DEDEDE" />
<rect x="0" y="3" width="1" height="1" fill="#DEDEDE" />
<rect x="5" y="3" width="1" height="1" fill="#F3F3F3" opacity="0.513725" />
<rect x="6" y="3" width="1" height="1" fill="#F3F3F3" />
<rect x="7" y="3" width="1" height="1" fill="#F3F3F3" />
<rect x="8" y="3" width="1" height="1" fill="#F3F3F3" />
<rect x="9" y="3" width="1" height="1" fill="#F3F3F3" />
<rect x="10" y="3" width="1" height="1" fill="#F3F3F3" />
<rect x="11" y="3" width="1" height="1" fill="#F3F3F3" opacity="0.490196" />
<rect x="15" y="3" width="1" height="1" fill="#DEDEDE" />
<rect x="0" y="4" width="1" height="1" fill="#DEDEDE" />
<rect x="5" y="4" width="1" height="1" fill="#F3F3F3" opacity="0.509804" />
<rect x="6" y="4" width="1" height="1" fill="#F3F3F3" opacity="0.486275" />
<rect x="7" y="4" width="1" height="1" fill="#F3F3F3" opacity="0.513725" />
<rect x="8" y="4" width="1" height="1" fill="#F3F3F3" />
<rect x="9" y="4" width="1" height="1" fill="#F3F3F3" />
<rect x="10" y="4" width="1" height="1" fill="#F3F3F3" />
<rect x="11" y="4" width="1" height="1" fill="#F3F3F3" opacity="0.490196" />
<rect x="15" y="4" width="1" height="1" fill="#DEDEDE" />
<rect x="0" y="5" width="1" height="1" fill="#DEDEDE" />
<rect x="3" y="5" width="1" height="1" fill="#F2F2F2" opacity="0.305882" />
<rect x="4" y="5" width="1" height="1" fill="#F3F3F3" opacity="0.960784" />
<rect x="5" y="5" width="1" height="1" fill="#F5F5F5" opacity="0.294118" />
<rect x="6" y="5" width="1" height="1" fill="#F3F3F3" opacity="0.972549" />
<rect x="7" y="5" width="1" height="1" fill="#F3F3F3" />
<rect x="8" y="5" width="1" height="1" fill="#F3F3F3" />
<rect x="9" y="5" width="1" height="1" fill="#F3F3F3" />
<rect x="10" y="5" width="1" height="1" fill="#F3F3F3" opacity="0.964706" />
<rect x="11" y="5" width="1" height="1" fill="#F4F4F4" opacity="0.270588" />
<rect x="15" y="5" width="1" height="1" fill="#DEDEDE" />
<rect x="0" y="6" width="1" height="1" fill="#DEDEDE" />
<rect x="3" y="6" width="1" height="1" fill="#F4F4F4" opacity="0.360784" />
<rect x="4" y="6" width="1" height="1" fill="#F3F3F3" />
<rect x="7" y="6" width="1" height="1" fill="#F3F3F3" opacity="0.505882" />
<rect x="8" y="6" width="1" height="1" fill="#F3F3F3" />
<rect x="9" y="6" width="1" height="1" fill="#F3F3F3" opacity="0.486275" />
<rect x="15" y="6" width="1" height="1" fill="#DEDEDE" />
<rect x="0" y="7" width="1" height="1" fill="#DEDEDE" />
<rect x="3" y="7" width="1" height="1" fill="#FFFFFF" opacity="0.058824" />
<rect x="4" y="7" width="1" height="1" fill="#F3F3F3" opacity="0.980392" />
<rect x="5" y="7" width="1" height="1" fill="#F3F3F3" opacity="0.407843" />
<rect x="6" y="7" width="1" height="1" fill="#F3F3F3" opacity="0.760784" />
<rect x="7" y="7" width="1" height="1" fill="#F3F3F3" />
<rect x="8" y="7" width="1" height="1" fill="#F3F3F3" />
<rect x="9" y="7" width="1" height="1" fill="#F3F3F3" />
<rect x="10" y="7" width="1" height="1" fill="#F3F3F3" />
<rect x="11" y="7" width="1" height="1" fill="#F3F3F3" />
<rect x="12" y="7" width="1" height="1" fill="#F5F5F5" opacity="0.301961" />
<rect x="15" y="7" width="1" height="1" fill="#DEDEDE" />
<rect x="0" y="8" width="1" height="1" fill="#DEDEDE" />
<rect x="4" y="8" width="1" height="1" fill="#F2F2F2" opacity="0.709804" />
<rect x="5" y="8" width="1" height="1" fill="#F3F3F3" />
<rect x="6" y="8" width="1" height="1" fill="#F3F3F3" />
<rect x="7" y="8" width="1" height="1" fill="#F3F3F3" />
<rect x="8" y="8" width="1" height="1" fill="#F3F3F3" />
<rect x="9" y="8" width="1" height="1" fill="#F3F3F3" />
<rect x="10" y="8" width="1" height="1" fill="#F3F3F3" />
<rect x="11" y="8" width="1" height="1" fill="#F3F3F3" />
<rect x="12" y="8" width="1" height="1" fill="#F3F3F3" opacity="0.882353" />
<rect x="13" y="8" width="1" height="1" fill="#FFFFFF" opacity="0.015686" />
<rect x="15" y="8" width="1" height="1" fill="#DEDEDE" />
<rect x="0" y="9" width="1" height="1" fill="#DEDEDE" />
<rect x="4" y="9" width="1" height="1" fill="#F4F4F4" opacity="0.270588" />
<rect x="5" y="9" width="1" height="1" fill="#F2F2F2" opacity="0.792157" />
<rect x="6" y="9" width="1" height="1" fill="#F2F2F2" opacity="0.780392" />
<rect x="7" y="9" width="1" height="1" fill="#F3F3F3" />
<rect x="8" y="9" width="1" height="1" fill="#F3F3F3" />
<rect x="9" y="9" width="1" height="1" fill="#F3F3F3" />
<rect x="10" y="9" width="1" height="1" fill="#F3F3F3" opacity="0.486275" />
<rect x="11" y="9" width="1" height="1" fill="#FFFFFF" opacity="0.015686" />
<rect x="12" y="9" width="1" height="1" fill="#F3F3F3" />
<rect x="13" y="9" width="1" height="1" fill="#F3F3F3" opacity="0.333333" />
<rect x="15" y="9" width="1" height="1" fill="#DEDEDE" />
<rect x="0" y="10" width="1" height="1" fill="#DEDEDE" />
<rect x="5" y="10" width="1" height="1" fill="#F4F4F4" opacity="0.282353" />
<rect x="6" y="10" width="1" height="1" fill="#F3F3F3" opacity="0.909804" />
<rect x="7" y="10" width="1" height="1" fill="#F3F3F3" />
<rect x="8" y="10" width="1" height="1" fill="#F3F3F3" />
<rect x="9" y="10" width="1" height="1" fill="#F3F3F3" />
<rect x="10" y="10" width="1" height="1" fill="#F4F4F4" opacity="0.278431" />
<rect x="12" y="10" width="1" height="1" fill="#F3F3F3" />
<rect x="13" y="10" width="1" height="1" fill="#F4F4F4" opacity="0.270588" />
<rect x="15" y="10" width="1" height="1" fill="#DEDEDE" />
<rect x="0" y="11" width="1" height="1" fill="#DEDEDE" />
<rect x="4" y="11" width="1" height="1" fill="#FFFFFF" opacity="0.023529" />
<rect x="5" y="11" width="1" height="1" fill="#F3F3F3" />
<rect x="6" y="11" width="1" height="1" fill="#F3F3F3" />
<rect x="7" y="11" width="1" height="1" fill="#F2F2F2" opacity="0.870588" />
<rect x="8" y="11" width="1" height="1" fill="#F3F3F3" opacity="0.890196" />
<rect x="9" y="11" width="1" height="1" fill="#F3F3F3" />
<rect x="10" y="11" width="1" height="1" fill="#F4F4F4" opacity="0.380392" />
<rect x="15" y="11" width="1" height="1" fill="#DEDEDE" />
<rect x="0" y="12" width="1" height="1" fill="#DEDEDE" />
<rect x="2" y="12" width="1" height="1" fill="#F5F5F5" opacity="0.286275" />
<rect x="3" y="12" width="1" height="1" fill="#F3F3F3" opacity="0.984314" />
<rect x="4" y="12" width="1" height="1" fill="#F3F3F3" />
<rect x="5" y="12" width="1" height="1" fill="#F4F4F4" opacity="0.184314" />
<rect x="8" y="12" width="1" height="1" fill="#FFFFFF" opacity="0.023529" />
<rect x="9" y="12" width="1" height="1" fill="#F3F3F3" opacity="0.890196" />
<rect x="10" y="12" width="1" height="1" fill="#F3F3F3" />
<rect x="11" y="12" width="1" height="1" fill="#F3F3F3" />
<rect x="12" y="12" width="1" height="1" fill="#F3F3F3" opacity="0.992157" />
<rect x="13" y="12" width="1" height="1" fill="#F5F5F5" opacity="0.290196" />
<rect x="15" y="12" width="1" height="1" fill="#DEDEDE" />
<rect x="0" y="13" width="1" height="1" fill="#DEDEDE" />
<rect x="2" y="13" width="1" height="1" fill="#F5F5F5" opacity="0.286275" />
<rect x="3" y="13" width="1" height="1" fill="#F3F3F3" opacity="0.976471" />
<rect x="4" y="13" width="1" height="1" fill="#F4F4F4" opacity="0.458824" />
<rect x="9" y="13" width="1" height="1" fill="#F4F4F4" opacity="0.380392" />
<rect x="10" y="13" width="1" height="1" fill="#F3F3F3" />
<rect x="11" y="13" width="1" height="1" fill="#F2F2F2" opacity="0.768627" />
<rect x="12" y="13" width="1" height="1" fill="#F4F4F4" opacity="0.094118" />
<rect x="15" y="13" width="1" height="1" fill="#DEDEDE" />
<rect x="1" y="14" width="1" height="1" fill="#DEDEDE" />
<rect x="14" y="14" width="1" height="1" fill="#DEDEDE" />
<rect x="2" y="15" width="1" height="1" fill="#DEDEDE" />
<rect x="3" y="15" width="1" height="1" fill="#DEDEDE" />
<rect x="4" y="15" width="1" height="1" fill="#DEDEDE" />
<rect x="5" y="15" width="1" height="1" fill="#DEDEDE" />
<rect x="6" y="15" width="1" height="1" fill="#DEDEDE" />
<rect x="7" y="15" width="1" height="1" fill="#DEDEDE" />
<rect x="8" y="15" width="1" height="1" fill="#DEDEDE" />
<rect x="9" y="15" width="1" height="1" fill="#DEDEDE" />
<rect x="10" y="15" width="1" height="1" fill="#DEDEDE" />
<rect x="11" y="15" width="1" height="1" fill="#DEDEDE" />
<rect x="12" y="15" width="1" height="1" fill="#DEDEDE" />
<rect x="13" y="15" width="1" height="1" fill="#DEDEDE" />
</svg>