<?xml version="1.0" encoding="UTF-8" ?>
<svg version="1.1" width="16" height="16" xmlns="http://www.w3.org/2000/svg" shape-rendering="crispEdges">
<rect x="11" y="1" width="1" height="1" fill="#FFFFFF" opacity="0.321569" />
<rect x="12" y="1" width="1" height="1" fill="#FFFFFF" opacity="0.909804" />
<rect x="13" y="1" width="1" height="1" fill="#FFFFFF" opacity="0.811765" />
<rect x="14" y="1" width="1" height="1" fill="#FFFFFF" opacity="0.235294" />
<rect x="11" y="2" width="1" height="1" fill="#FFFFFF" opacity="0.870588" />
<rect x="12" y="2" width="1" height="1" fill="#FFFFFF" />
<rect x="13" y="2" width="1" height="1" fill="#FFFFFF" />
<rect x="14" y="2" width="1" height="1" fill="#FFFFFF" opacity="0.878431" />
<rect x="11" y="3" width="1" height="1" fill="#FFFFFF" opacity="0.878431" />
<rect x="12" y="3" width="1" height="1" fill="#FFFFFF" />
<rect x="13" y="3" width="1" height="1" fill="#FFFFFF" />
<rect x="14" y="3" width="1" height="1" fill="#FFFFFF" opacity="0.933333" />
<rect x="11" y="4" width="1" height="1" fill="#FFFFFF" opacity="0.356863" />
<rect x="12" y="4" width="1" height="1" fill="#FFFFFF" />
<rect x="13" y="4" width="1" height="1" fill="#FFFFFF" opacity="0.945098" />
<rect x="14" y="4" width="1" height="1" fill="#FFFFFF" opacity="0.309804" />
<rect x="11" y="5" width="1" height="1" fill="#FFFFFF" opacity="0.478431" />
<rect x="12" y="5" width="1" height="1" fill="#FFFFFF" />
<rect x="13" y="5" width="1" height="1" fill="#FFFFFF" opacity="0.607843" />
<rect x="8" y="6" width="1" height="1" fill="#FFFFFF" opacity="0.090196" />
<rect x="9" y="6" width="1" height="1" fill="#FFFFFF" opacity="0.254902" />
<rect x="10" y="6" width="1" height="1" fill="#FFFFFF" opacity="0.611765" />
<rect x="11" y="6" width="1" height="1" fill="#FFFFFF" />
<rect x="12" y="6" width="1" height="1" fill="#FFFFFF" opacity="0.968627" />
<rect x="13" y="6" width="1" height="1" fill="#FFFFFF" opacity="0.141176" />
<rect x="4" y="7" width="1" height="1" fill="#FFFFFF" opacity="0.298039" />
<rect x="5" y="7" width="1" height="1" fill="#FFFFFF" opacity="0.650980" />
<rect x="6" y="7" width="1" height="1" fill="#FFFFFF" opacity="0.901961" />
<rect x="7" y="7" width="1" height="1" fill="#FFFFFF" />
<rect x="8" y="7" width="1" height="1" fill="#FFFFFF" />
<rect x="9" y="7" width="1" height="1" fill="#FFFFFF" />
<rect x="10" y="7" width="1" height="1" fill="#FFFFFF" />
<rect x="11" y="7" width="1" height="1" fill="#FFFFFF" />
<rect x="12" y="7" width="1" height="1" fill="#FFFFFF" opacity="0.380392" />
<rect x="3" y="8" width="1" height="1" fill="#FFFFFF" opacity="0.572549" />
<rect x="4" y="8" width="1" height="1" fill="#FFFFFF" />
<rect x="5" y="8" width="1" height="1" fill="#FFFFFF" />
<rect x="6" y="8" width="1" height="1" fill="#FFFFFF" />
<rect x="7" y="8" width="1" height="1" fill="#FFFFFF" />
<rect x="8" y="8" width="1" height="1" fill="#FFFFFF" />
<rect x="9" y="8" width="1" height="1" fill="#FFFFFF" opacity="0.894118" />
<rect x="10" y="8" width="1" height="1" fill="#FFFFFF" opacity="0.643137" />
<rect x="11" y="8" width="1" height="1" fill="#FFFFFF" opacity="0.282353" />
<rect x="2" y="9" width="1" height="1" fill="#FFFFFF" opacity="0.294118" />
<rect x="3" y="9" width="1" height="1" fill="#FFFFFF" />
<rect x="4" y="9" width="1" height="1" fill="#FFFFFF" opacity="0.996078" />
<rect x="5" y="9" width="1" height="1" fill="#FFFFFF" opacity="0.623529" />
<rect x="6" y="9" width="1" height="1" fill="#FFFFFF" opacity="0.247059" />
<rect x="7" y="9" width="1" height="1" fill="#FFFFFF" opacity="0.090196" />
<rect x="2" y="10" width="1" height="1" fill="#FFFFFF" opacity="0.682353" />
<rect x="3" y="10" width="1" height="1" fill="#FFFFFF" />
<rect x="4" y="10" width="1" height="1" fill="#FFFFFF" opacity="0.462745" />
<rect x="1" y="11" width="1" height="1" fill="#FFFFFF" opacity="0.262745" />
<rect x="2" y="11" width="1" height="1" fill="#FFFFFF" opacity="0.949020" />
<rect x="3" y="11" width="1" height="1" fill="#FFFFFF" />
<rect x="4" y="11" width="1" height="1" fill="#FFFFFF" opacity="0.447059" />
<rect x="0" y="12" width="1" height="1" fill="#FFFFFF" opacity="0.062745" />
<rect x="1" y="12" width="1" height="1" fill="#FFFFFF" opacity="0.976471" />
<rect x="2" y="12" width="1" height="1" fill="#FFFFFF" />
<rect x="3" y="12" width="1" height="1" fill="#FFFFFF" />
<rect x="4" y="12" width="1" height="1" fill="#FFFFFF" opacity="0.992157" />
<rect x="5" y="12" width="1" height="1" fill="#FFFFFF" opacity="0.066667" />
<rect x="0" y="13" width="1" height="1" fill="#FFFFFF" opacity="0.039216" />
<rect x="1" y="13" width="1" height="1" fill="#FFFFFF" opacity="0.964706" />
<rect x="2" y="13" width="1" height="1" fill="#FFFFFF" />
<rect x="3" y="13" width="1" height="1" fill="#FFFFFF" />
<rect x="4" y="13" width="1" height="1" fill="#FFFFFF" opacity="0.976471" />
<rect x="5" y="13" width="1" height="1" fill="#FFFFFF" opacity="0.062745" />
<rect x="1" y="14" width="1" height="1" fill="#FFFFFF" opacity="0.376471" />
<rect x="2" y="14" width="1" height="1" fill="#FFFFFF" />
<rect x="3" y="14" width="1" height="1" fill="#FFFFFF" opacity="0.968627" />
<rect x="4" y="14" width="1" height="1" fill="#FFFFFF" opacity="0.345098" />
<rect x="2" y="15" width="1" height="1" fill="#FFFFFF" opacity="0.125490" />
<rect x="3" y="15" width="1" height="1" fill="#FFFFFF" opacity="0.058824" />
</svg>