<?xml version="1.0" encoding="UTF-8" ?>
<svg version="1.1" width="16" height="16" xmlns="http://www.w3.org/2000/svg" shape-rendering="crispEdges">
<rect x="11" y="1" width="1" height="1" fill="#BB8BF2" opacity="0.309804" />
<rect x="12" y="1" width="1" height="1" fill="#BE8CF4" opacity="0.800000" />
<rect x="13" y="1" width="1" height="1" fill="#BD8CF3" opacity="0.862745" />
<rect x="14" y="1" width="1" height="1" fill="#BB8BF2" opacity="0.309804" />
<rect x="11" y="2" width="1" height="1" fill="#BD8DF2" opacity="0.866667" />
<rect x="12" y="2" width="1" height="1" fill="#BE8DF3" opacity="0.988235" />
<rect x="13" y="2" width="1" height="1" fill="#BE8DF3" opacity="0.988235" />
<rect x="14" y="2" width="1" height="1" fill="#BE8CF4" opacity="0.800000" />
<rect x="11" y="3" width="1" height="1" fill="#BD8DF2" opacity="0.866667" />
<rect x="12" y="3" width="1" height="1" fill="#BE8DF3" opacity="0.988235" />
<rect x="13" y="3" width="1" height="1" fill="#BE8DF3" opacity="0.988235" />
<rect x="14" y="3" width="1" height="1" fill="#BD8DF2" opacity="0.866667" />
<rect x="11" y="4" width="1" height="1" fill="#BD8CF2" opacity="0.372549" />
<rect x="12" y="4" width="1" height="1" fill="#BE8DF3" opacity="0.988235" />
<rect x="13" y="4" width="1" height="1" fill="#BC8CF2" opacity="0.929412" />
<rect x="14" y="4" width="1" height="1" fill="#BE8EF3" opacity="0.247059" />
<rect x="11" y="5" width="1" height="1" fill="#BE8EF3" opacity="0.494118" />
<rect x="12" y="5" width="1" height="1" fill="#BE8DF3" opacity="0.988235" />
<rect x="13" y="5" width="1" height="1" fill="#BC8CF2" opacity="0.619608" />
<rect x="8" y="6" width="1" height="1" fill="#C48FEF" opacity="0.062745" />
<rect x="9" y="6" width="1" height="1" fill="#BD8AF3" opacity="0.247059" />
<rect x="10" y="6" width="1" height="1" fill="#BF8CF4" opacity="0.615686" />
<rect x="11" y="6" width="1" height="1" fill="#BE8DF3" opacity="0.988235" />
<rect x="12" y="6" width="1" height="1" fill="#BE8DF3" opacity="0.988235" />
<rect x="13" y="6" width="1" height="1" fill="#BE8EF3" opacity="0.247059" />
<rect x="4" y="7" width="1" height="1" fill="#BE8EF3" opacity="0.247059" />
<rect x="5" y="7" width="1" height="1" fill="#BF8CF4" opacity="0.615686" />
<rect x="6" y="7" width="1" height="1" fill="#BE8CF4" opacity="0.800000" />
<rect x="7" y="7" width="1" height="1" fill="#BE8DF3" opacity="0.988235" />
<rect x="8" y="7" width="1" height="1" fill="#BE8DF3" opacity="0.988235" />
<rect x="9" y="7" width="1" height="1" fill="#BE8DF3" opacity="0.988235" />
<rect x="10" y="7" width="1" height="1" fill="#BE8DF3" opacity="0.988235" />
<rect x="11" y="7" width="1" height="1" fill="#BE8DF3" opacity="0.988235" />
<rect x="12" y="7" width="1" height="1" fill="#BD8CF2" opacity="0.372549" />
<rect x="3" y="8" width="1" height="1" fill="#BD8CF1" opacity="0.435294" />
<rect x="4" y="8" width="1" height="1" fill="#BE8DF3" opacity="0.988235" />
<rect x="5" y="8" width="1" height="1" fill="#BE8DF3" opacity="0.988235" />
<rect x="6" y="8" width="1" height="1" fill="#BE8DF3" opacity="0.988235" />
<rect x="7" y="8" width="1" height="1" fill="#BE8DF3" opacity="0.988235" />
<rect x="8" y="8" width="1" height="1" fill="#BE8DF3" opacity="0.988235" />
<rect x="9" y="8" width="1" height="1" fill="#BE8DF3" opacity="0.803922" />
<rect x="10" y="8" width="1" height="1" fill="#BC8CF2" opacity="0.619608" />
<rect x="11" y="8" width="1" height="1" fill="#B78AEF" opacity="0.188235" />
<rect x="2" y="9" width="1" height="1" fill="#BE8EF3" opacity="0.247059" />
<rect x="3" y="9" width="1" height="1" fill="#BE8DF3" opacity="0.988235" />
<rect x="4" y="9" width="1" height="1" fill="#BE8DF3" opacity="0.988235" />
<rect x="5" y="9" width="1" height="1" fill="#BC8CF2" opacity="0.619608" />
<rect x="6" y="9" width="1" height="1" fill="#BE8EF3" opacity="0.247059" />
<rect x="7" y="9" width="1" height="1" fill="#C48FEF" opacity="0.062745" />
<rect x="2" y="10" width="1" height="1" fill="#BC8CF2" opacity="0.619608" />
<rect x="3" y="10" width="1" height="1" fill="#BE8DF3" opacity="0.988235" />
<rect x="4" y="10" width="1" height="1" fill="#BE8EF3" opacity="0.494118" />
<rect x="1" y="11" width="1" height="1" fill="#BB8BF2" opacity="0.309804" />
<rect x="2" y="11" width="1" height="1" fill="#BE8CF3" opacity="0.925490" />
<rect x="3" y="11" width="1" height="1" fill="#BE8DF3" opacity="0.988235" />
<rect x="4" y="11" width="1" height="1" fill="#BD8CF2" opacity="0.372549" />
<rect x="1" y="12" width="1" height="1" fill="#BD8DF2" opacity="0.866667" />
<rect x="2" y="12" width="1" height="1" fill="#BE8DF3" opacity="0.988235" />
<rect x="3" y="12" width="1" height="1" fill="#BE8DF3" opacity="0.988235" />
<rect x="4" y="12" width="1" height="1" fill="#BD8CF3" opacity="0.862745" />
<rect x="1" y="13" width="1" height="1" fill="#BD8DF2" opacity="0.866667" />
<rect x="2" y="13" width="1" height="1" fill="#BE8DF3" opacity="0.988235" />
<rect x="3" y="13" width="1" height="1" fill="#BE8DF3" opacity="0.988235" />
<rect x="4" y="13" width="1" height="1" fill="#BE8DF3" opacity="0.803922" />
<rect x="1" y="14" width="1" height="1" fill="#BB8BF2" opacity="0.309804" />
<rect x="2" y="14" width="1" height="1" fill="#BE8DF3" opacity="0.803922" />
<rect x="3" y="14" width="1" height="1" fill="#BE8DF3" opacity="0.803922" />
<rect x="4" y="14" width="1" height="1" fill="#BE8EF3" opacity="0.247059" />
</svg>